<svg width="112" height="112" viewBox="0 0 112 112" fill="none" xmlns="http://www.w3.org/2000/svg">
<g clip-path="url(#clip0_2322_5641)">
<path d="M96.9931 45.6243C95.4103 44.7399 93.4107 45.2912 92.5199 46.8611C91.6259 48.4377 92.1802 50.4403 93.7567 51.3344C101.149 55.5226 105.438 60.675 105.438 65.8436C105.438 74.8255 93.0904 83.3136 75.037 86.9698C73.2586 87.3319 72.1114 89.0622 72.4704 90.8375C72.8355 92.6302 74.5894 93.7642 76.3381 93.4041C97.8679 89.0431 112 78.2253 112 65.8436C112 58.2077 106.529 51.0268 96.9931 45.6243Z" fill="#06B25F"/>
<path d="M39.5938 94.0876V105.219C39.5938 106.43 40.2603 107.542 41.3273 108.112C42.3795 108.677 43.6778 108.627 44.6952 107.949L64.3827 94.8239C65.296 94.2151 65.844 93.1896 65.844 92.0939C65.844 90.9982 65.296 89.9727 64.3827 89.3639L44.6952 76.2389C43.6859 75.5723 42.3881 75.5019 41.3273 76.0755C40.2603 76.6455 39.5938 77.7574 39.5938 78.9687V87.3728C20.4089 84.0861 6.5625 75.3567 6.5625 65.8437C6.5625 60.675 10.8509 55.5224 18.2431 51.3344C19.8196 50.4404 20.3739 48.4377 19.4799 46.8612C18.5892 45.291 16.5928 44.74 15.0067 45.6244C5.47072 51.0268 0 58.2078 0 65.8437C0 79.211 15.9324 90.3581 39.5938 94.0876Z" fill="#06B25F"/>
<path d="M82.2498 16.2373L57.4674 3.84601C56.5445 3.38466 55.4552 3.38466 54.5322 3.84601L29.7487 16.238L55.9998 29.3623L82.2498 16.2373Z" fill="#276ED8"/>
<path d="M85.5312 52.7188V21.9348L59.2812 35.0598C59.2812 35.7336 59.2812 68.5461 59.2812 67.8723L83.7176 55.6542C84.8295 55.0964 85.5312 53.9622 85.5312 52.7188Z" fill="#276ED8"/>
<path d="M26.4688 52.7187C26.4688 53.9621 27.1705 55.0963 28.2824 55.6539L52.7188 67.8722C52.7188 65.5688 52.7188 34.3855 52.7188 35.0597L26.4688 21.9358V52.7187Z" fill="#276ED8"/>
</g>
<defs>
<clipPath id="clip0_2322_5641">
<rect width="112" height="112" fill="white"/>
</clipPath>
</defs>
</svg>
