<svg width="112" height="112" viewBox="0 0 112 112" fill="none" xmlns="http://www.w3.org/2000/svg">
<g clip-path="url(#clip0_2322_5651)">
<path d="M42 0C29.134 0 18.6667 10.4673 18.6667 23.3333C18.6667 36.1993 29.134 46.6667 42 46.6667C54.866 46.6667 65.3333 36.1993 65.3333 23.3333C65.3333 10.4673 54.866 0 42 0Z" fill="#276ED8"/>
<path d="M77.3826 111.907C75.4973 111.473 74.3259 109.597 74.7553 107.711L81.7553 77.378C82.1939 75.4974 84.0746 74.3074 85.9506 74.7554C87.8359 75.1894 89.0073 77.0654 88.5779 78.9507L81.5779 109.284C81.1346 111.216 79.1979 112.35 77.3826 111.907Z" fill="#06B25F"/>
<path d="M96.8334 107.333C95.8768 107.333 94.9248 106.941 94.2294 106.176C92.9368 104.734 93.0534 102.527 94.4908 101.229L103.269 93.3334L94.4908 85.4374C93.0534 84.1447 92.9368 81.9327 94.2294 80.4907C95.5268 79.0534 97.7388 78.9414 99.1761 80.2294L110.843 90.7294C111.58 91.3967 112 92.3394 112 93.3334C112 94.3274 111.58 95.27 110.843 95.9374L99.1761 106.437C98.5041 107.039 97.6688 107.333 96.8334 107.333Z" fill="#06B25F"/>
<path d="M66.5 107.333C65.6647 107.333 64.8294 107.039 64.1574 106.437L52.4907 95.9372C51.7533 95.2699 51.3333 94.3272 51.3333 93.3332C51.3333 92.3392 51.7533 91.3966 52.4907 90.7292L64.1574 80.2292C65.5947 78.9412 67.8067 79.0579 69.104 80.4906C70.3967 81.9326 70.28 84.1399 68.8427 85.4372L60.0647 93.3332L68.8427 101.229C70.28 102.522 70.3967 104.734 69.104 106.176C68.4087 106.941 67.4567 107.333 66.5 107.333Z" fill="#06B25F"/>
<path d="M43.1667 93.3333C43.1667 89.712 44.7113 86.2353 47.3993 83.8087L59.08 73.2947C61.4507 71.1667 64.4933 70.0047 67.662 70.0047C70.2893 70.0047 72.828 70.8353 74.9607 72.3053C76.5473 69.202 79.31 66.906 82.6093 65.9027C78.6287 59.9387 71.8527 56 64.1667 56H22.1667C9.94467 56 0 65.9447 0 78.1667V96.8333C0 98.7653 1.568 100.333 3.5 100.333H45.304C43.9507 98.2613 43.1667 95.844 43.1667 93.3333Z" fill="#276ED8"/>
</g>
<defs>
<clipPath id="clip0_2322_5651">
<rect width="112" height="112" fill="white"/>
</clipPath>
</defs>
</svg>
