<svg width="115" height="115" viewBox="0 0 115 115" fill="none" xmlns="http://www.w3.org/2000/svg">
<path d="M84.8771 0H32.1255C28.1965 0 25.0002 3.24398 25.0002 7.23V12H92.0002V7.23C92.0004 3.24398 88.8043 0 84.8771 0ZM68.3539 9.22992H48.6492C47.5616 9.22992 46.6788 8.33391 46.6788 7.23C46.6788 6.12609 47.5616 5.23008 48.6492 5.23008H68.3539C69.4415 5.23008 70.3243 6.12609 70.3243 7.23C70.3243 8.33391 69.4415 9.22992 68.3539 9.22992Z" fill="#276ED8"/>
<path d="M59.8798 101.583H55.1208C54.3196 101.583 53.666 102.235 53.666 103.038V103.964C53.666 104.765 54.3175 105.417 55.1208 105.417H59.8798C60.681 105.417 61.3326 104.765 61.3326 103.964V103.038C61.3346 102.235 60.681 101.583 59.8798 101.583Z" fill="#276ED8"/>
<path d="M91.9998 15H24.9998V92H91.9998V15Z" fill="#276ED8"/>
<path d="M73.0746 56.5956L77.9998 55.6692V51.2536L73.0746 50.4044C72.6963 48.5903 71.9784 46.8919 70.9902 45.3866L73.8157 41.2411L70.6892 38.1146L66.6054 41.0018C65.1001 40.0137 63.4095 39.3034 61.5876 38.9252L60.6613 34H56.2456L55.3964 38.9252C53.5823 39.3034 51.884 40.0214 50.3786 41.0095L46.2408 38.1841L43.1144 41.3106L46.0015 45.3943C45.0134 46.8996 44.3032 48.598 43.9249 50.4121L38.9998 51.3385V55.7542L43.9249 56.6033C44.3032 58.4252 45.0211 60.1158 46.0093 61.6211L43.1838 65.7589L46.3103 68.8854L50.4018 65.9982C51.9071 66.9863 53.6055 67.7043 55.4196 68.0748L56.3459 73H60.7616L61.6108 68.0748C63.4326 67.6966 65.1233 66.9786 66.6286 65.9905L70.7664 68.8159L73.8929 65.6894L71.0057 61.6057C71.9861 60.1081 72.6963 58.4175 73.0746 56.5956ZM58.4997 62.6479C53.4511 62.6479 49.3596 58.5487 49.3596 53.5077C49.3596 48.4667 53.4511 44.3676 58.4997 44.3676C63.5484 44.3676 67.6399 48.459 67.6399 53.5077C67.6399 58.5564 63.5484 62.6479 58.4997 62.6479Z" fill="#66D6A0"/>
<path d="M24.9998 96V108.131C24.9998 111.918 28.1959 115 32.1232 115H84.8763C88.8036 115 91.9998 111.918 91.9998 108.131V96H24.9998Z" fill="#276ED8"/>
</svg>
