<svg width="94" height="94" viewBox="0 0 94 94" fill="none" xmlns="http://www.w3.org/2000/svg">
<path d="M52.0073 45.0598C53.0902 44.506 54.2966 44.2132 55.5482 44.2132C57.6224 44.2132 59.5724 45.0184 61.0424 46.4807L64.2069 43.3166C72.0378 46.0616 81.095 44.3043 87.3553 38.0443C92.6228 32.7768 94.7001 25.5295 93.5912 18.6981C93.4691 17.9458 92.9364 17.3253 92.2113 17.0912C91.4863 16.8568 90.6904 17.0473 90.1516 17.5863L85.4531 22.2849C81.6267 26.1112 75.4226 26.1112 71.5962 22.2849C67.7696 18.4586 67.7696 12.2544 71.5962 8.42808L76.2948 3.72951C76.8339 3.19045 77.026 2.39452 76.7912 1.66915C76.5568 0.943457 75.9353 0.412093 75.1827 0.289915C68.3516 -0.81899 61.104 1.25836 55.8368 6.52582C49.4836 12.8791 47.7737 22.1121 50.6957 30.0216L43.8326 36.8847L52.0073 45.0598Z" fill="#276ED8"/>
<path d="M39.5008 57.4964L31.3604 49.356L2.89546 77.8206C-0.805809 81.5219 -0.805809 87.5227 2.89546 91.224C6.59672 94.9253 12.5976 94.9253 16.2988 91.224L40.8374 66.6857C38.3624 64.1976 37.9164 60.4412 39.5008 57.4964Z" fill="#276ED8"/>
<path d="M57.6564 49.8964C57.0743 49.3144 56.3111 49.0232 55.5482 49.0232C54.7853 49.0232 54.0221 49.3144 53.4401 49.8964L51.7408 51.5957L21.4714 21.3263L22.8862 19.9115C24.1754 18.6226 24.0153 16.4847 22.546 15.4027L10.196 6.30733C9.00922 5.43348 7.36222 5.55758 6.32001 6.59979L1.07629 11.8438C0.0340863 12.886 -0.090016 14.5334 0.783831 15.7199L9.8789 28.0698C10.9609 29.5388 13.0975 29.7005 14.3876 28.4101L15.8025 26.9949L46.0719 57.2643L44.253 59.0832C43.0886 60.2476 43.0886 62.1351 44.253 63.2995L72.1773 91.2238C75.8786 94.9251 81.8794 94.9251 85.5807 91.2238C89.282 87.5225 89.282 81.5217 85.5807 77.8204L57.6564 49.8964Z" fill="#06B25F"/>
</svg>
